<?xml version="1.0" encoding="UTF-8" standalone="no"?>
<svg
   xmlns:dc="http://purl.org/dc/elements/1.1/"
   xmlns:cc="http://creativecommons.org/ns#"
   xmlns:rdf="http://www.w3.org/1999/02/22-rdf-syntax-ns#"
   xmlns:svg="http://www.w3.org/2000/svg"
   xmlns="http://www.w3.org/2000/svg"
   xmlns:sodipodi="http://sodipodi.sourceforge.net/DTD/sodipodi-0.dtd"
   xmlns:inkscape="http://www.inkscape.org/namespaces/inkscape"
   width="6781.502"
   height="4218.677"
   viewBox="0 0 6781.502 4218.677"
   version="1.1"
   id="svg35"
   sodipodi:docname="sb finance logoWhite.svg"
   inkscape:export-filename="/home/nitin/Downloads/whiteSbgflogo.png"
   inkscape:export-xdpi="96"
   inkscape:export-ydpi="96"
   inkscape:version="0.92.5 (2060ec1f9f, 2020-04-08)">
  <metadata
     id="metadata41">
    <rdf:RDF>
      <cc:Work
         rdf:about="">
        <dc:format>image/svg+xml</dc:format>
        <dc:type
           rdf:resource="http://purl.org/dc/dcmitype/StillImage" />
        <dc:title></dc:title>
      </cc:Work>
    </rdf:RDF>
  </metadata>
  <defs
     id="defs39" />
  <sodipodi:namedview
     pagecolor="#ffffff"
     bordercolor="#666666"
     borderopacity="1"
     objecttolerance="10"
     gridtolerance="10"
     guidetolerance="10"
     inkscape:pageopacity="0"
     inkscape:pageshadow="2"
     inkscape:window-width="1528"
     inkscape:window-height="836"
     id="namedview37"
     showgrid="false"
     inkscape:zoom="0.14539552"
     inkscape:cx="4632.1923"
     inkscape:cy="2109.3384"
     inkscape:window-x="72"
     inkscape:window-y="27"
     inkscape:window-maximized="1"
     inkscape:current-layer="svg35" />
  <g
     id="Group_12299"
     data-name="Group 12299"
     transform="translate(-33.286 -50.995)">
    <g
       id="Group_12295"
       data-name="Group 12295"
       transform="translate(33.286 3608.463)">
      <g
         id="Group_12294"
         data-name="Group 12294">
        <path
           id="Path_70928"
           data-name="Path 70928"
           d="M614.915,1073.566H477.407c-27.327-49.192-76.869-75.045-140.069-75.045-106.757,0-181.065,74.208-181.065,190.11,0,118.394,75.161,191.771,186.191,191.771,92.24,0,151.172-51.693,169.1-134.24H306.591v-89.217H629.432v101.725c-23.917,118.4-132.382,226.79-291.241,226.79-173.373,0-304.905-122.564-304.905-296.829s131.532-297.67,304.051-297.67C470.573,890.962,576.481,956.836,614.915,1073.566Z"
           transform="translate(-33.286 -826.757)"
           fill="#171717" />
        <path
           id="Path_70929"
           data-name="Path 70929"
           d="M418.5,1395.746c-137.508,0-237.436-93.386-237.436-238.47,0-145.916,97.366-238.466,237.436-238.466,136.65,0,233.159,90.886,233.159,228.467a266.6,266.6,0,0,1-3.415,45.023h-345.9c5.98,68.37,53.806,106.727,113.591,106.727,51.244,0,79.43-25.016,94.8-55.866H639.7C614.074,1328.208,535.5,1395.746,418.5,1395.746Zm-115.3-281.828H527.814c-1.707-60.864-51.244-99.221-112.738-99.221C357.856,1014.7,312.588,1050.548,303.193,1113.917Z"
           transform="translate(456.095 -734.536)"
           fill="#171717" />
        <path
           id="Path_70930"
           data-name="Path 70930"
           d="M637.829,1132.457c0-74.208-41.849-114.234-105.054-114.234-64.908,0-106.757,40.025-106.757,114.234V1387.6H306.45V925.673H426.017V983.2c30.747-39.189,81.991-64.2,142.631-64.2C678.824,919,757.4,989.042,757.4,1116.612V1387.6H637.829Z"
           transform="translate(871.347 -733.894)"
           fill="#171717" />
        <path
           id="Path_70931"
           data-name="Path 70931"
           d="M663.725,1395.746c-137.5,0-237.431-93.386-237.431-238.47,0-145.916,97.362-238.466,237.431-238.466,136.65,0,233.163,90.886,233.163,228.467a266.178,266.178,0,0,1-3.419,45.023h-345.9c5.98,68.37,53.805,106.727,113.591,106.727,51.249,0,79.43-25.016,94.805-55.866H884.928C859.308,1328.208,780.731,1395.746,663.725,1395.746Zm-115.3-281.828H773.048c-1.707-60.864-51.249-99.221-112.742-99.221C603.086,1014.7,557.818,1050.548,548.427,1113.917Z"
           transform="translate(1268.232 -734.536)"
           fill="#171717" />
        <path
           id="Path_70932"
           data-name="Path 70932"
           d="M671.25,1387.6H551.683V925.673H671.25v71.708C701.143,949.853,750.68,919,816.442,919v122.564h-31.6c-70.893,0-113.6,26.685-113.6,115.9Z"
           transform="translate(1683.481 -733.894)"
           fill="#171717" />
        <path
           id="Path_70933"
           data-name="Path 70933"
           d="M836.7,918.809c76.015,0,128.109,35.02,156.294,73.376V926.316H1113.42v461.928H992.995V1320.7c-28.186,40.03-81.991,75.045-157.148,75.045-119.572,0-215.231-95.887-215.231-240.135S716.275,918.809,836.7,918.809Zm30.746,102.557c-64.054,0-124.7,46.7-124.7,134.244s60.644,137.577,124.7,137.577c65.762,0,125.548-48.36,125.548-135.913S933.208,1021.366,867.447,1021.366Z"
           transform="translate(1911.766 -734.536)"
           fill="#171717" />
        <path
           id="Path_70934"
           data-name="Path 70934"
           d="M758.09,884.58H877.662V1501.6H758.09Z"
           transform="translate(2367.036 -847.892)"
           fill="#171717" />
        <path
           id="Path_70935"
           data-name="Path 70935"
           d="M852.38,892.7h368.1v94.219H971.947v149.253h190.46v92.554H971.947V1474.7H852.38Z"
           transform="translate(2679.295 -820.994)"
           fill="#171717" />
        <path
           id="Path_70936"
           data-name="Path 70936"
           d="M950.434,944.446c0-38.357,30.746-68.375,73.449-68.375,41.854,0,73.454,30.018,73.454,68.375s-31.6,68.37-73.454,68.37C981.18,1012.816,950.434,982.8,950.434,944.446Zm12.814,123.4H1082.82v461.928H963.248Z"
           transform="translate(3004.018 -876.071)"
           fill="#171717" />
        <path
           id="Path_70937"
           data-name="Path 70937"
           d="M1335.893,1132.457c0-74.208-41.85-114.234-105.054-114.234-64.913,0-106.762,40.025-106.762,114.234V1387.6H1004.514V925.673h119.563V983.2c30.746-39.189,81.991-64.2,142.634-64.2,110.177,0,188.744,70.039,188.744,197.609V1387.6H1335.893Z"
           transform="translate(3183.114 -733.894)"
           fill="#171717" />
        <path
           id="Path_70938"
           data-name="Path 70938"
           d="M1340.437,918.809c76.015,0,128.117,35.02,156.3,73.376V926.316h120.421v461.928H1496.736V1320.7c-28.181,40.03-81.991,75.045-157.152,75.045-119.572,0-215.226-95.887-215.226-240.135S1220.012,918.809,1340.437,918.809Zm30.747,102.557c-64.05,0-124.694,46.7-124.694,134.244s60.645,137.577,124.694,137.577c65.766,0,125.552-48.36,125.552-135.913S1436.949,1021.366,1371.184,1021.366Z"
           transform="translate(3579.996 -734.536)"
           fill="#171717" />
        <path
           id="Path_70939"
           data-name="Path 70939"
           d="M1593.209,1132.457c0-74.208-41.84-114.234-105.046-114.234-64.913,0-106.762,40.025-106.762,114.234V1387.6H1261.83V925.673H1381.4V983.2c30.747-39.189,81.991-64.2,142.634-64.2,110.177,0,188.744,70.039,188.744,197.609V1387.6H1593.209Z"
           transform="translate(4035.263 -733.894)"
           fill="#171717" />
        <path
           id="Path_70940"
           data-name="Path 70940"
           d="M1615.691,918.809c117.865,0,197.286,60.036,222.911,163.426H1709.639c-13.664-39.189-45.264-64.2-94.8-64.2-66.62,0-111.03,49.2-111.03,139.241s44.411,138.414,111.03,138.414c49.536,0,80.284-21.679,94.8-63.369H1838.6c-25.625,98.388-105.046,163.425-222.911,163.425-136.654,0-234.016-93.386-234.016-238.47S1479.037,918.809,1615.691,918.809Z"
           transform="translate(4432.152 -734.536)"
           fill="#171717" />
        <path
           id="Path_70941"
           data-name="Path 70941"
           d="M1734.389,1395.746c-137.5,0-237.427-93.386-237.427-238.47,0-145.916,97.362-238.466,237.427-238.466,136.655,0,233.167,90.886,233.167,228.467a266.178,266.178,0,0,1-3.419,45.023h-345.9c5.975,68.37,53.8,106.727,113.586,106.727,51.249,0,79.43-25.016,94.806-55.866H1955.6C1929.976,1328.208,1851.4,1395.746,1734.389,1395.746Zm-115.295-281.828h224.618c-1.707-60.864-51.24-99.221-112.737-99.221C1673.754,1014.7,1628.49,1050.548,1619.094,1113.917Z"
           transform="translate(4813.946 -734.536)"
           fill="#171717" />
      </g>
    </g>
    <g
       id="Group_12298"
       data-name="Group 12298"
       transform="translate(2138.639 50.995)">
      <g
         id="Group_12297"
         data-name="Group 12297">
        <path
           id="Path_70942"
           data-name="Path 70942"
           d="M2019.14,2296.356c280.652-156.3,255.312-490.657,255.031-494.813-24.581-367.161-590.666-590.252-850.4-692.771-829.486-327.4-883.813-843.029-883.628-843.822-.112-.224-144.872,549.468,375.849,944.556,191.409,154.418,653.768,336.51,816.124,418.112C1732.115,1627.618,2255.062,1836.4,2019.14,2296.356Z"
           transform="translate(-521.576 657.554)"
           fill="#8e6e3d" />
        <path
           id="Path_70943"
           data-name="Path 70943"
           d="M2275.841,2456.872c-140.958,135.5-314.934,188.6-501.294,194.12-176.206,5.187-352.51,4.17-528.819,5.865l1.8-4.51-3.708-2.932c48.472-28.182,104.136-28.858,155.781-45.656,178.107-57.94,336.419-148.236,470.392-289.6C2148.957,2019.6,2098.269,1372.535,1623,1196.342c-59.156-21.869-119.9-36.749-185.2-51.857,15.871-23.9,37.356-21.416,54.185-26.6,67.939-20.744,133.977-46.217,195.88-83.082,123.818-73.838,204.037-178.448,202.239-336.833-1.8-163.68-71.647-287.007-203.718-369.861-76.407-47.8-160.748-69.444-248.055-74.851-1.38-.116-2.755-.116-4.126-.228-12.172-.677-24.339-1.237-36.516-1.466-60-1.8-120.106.228-180.219-1.125-24.443-.565-34.179,7.326-34.179,35.058q.634,314.005.211,628.238C1070.376,845.19,936.08,775.414,877.135,745.314c.108-12.176,0-24.46,0-36.636-.1-84.772-.634-169.656-2.113-254.428-1.695-100.329-57.574-165.487-144.459-201.787-14.388-5.972-42.22-2.251-35.343-30.324,5.187-20.739,27.621-10.257,42.017-10.257q327.949-.841,656.014-.561h211.441c118.416-.116,231.02,23.783,333.987,89.506,284.037,181.155,287.214,602.761,5.614,789.211-16.195,10.71-33.234,20.179-56.194,34.045,35.028,9.581,64.658,16.01,93.232,25.926,266.574,91.537,441.607,280.471,500.134,572.212C2537.552,2002.127,2482.625,2257.909,2275.841,2456.872Z"
           transform="translate(49.924 473.04)"
           fill="#8e6e3d" />
        <path
           id="Path_70944"
           data-name="Path 70944"
           d="M1586.5,1428.684q-404.265-.142-808.527-.172c-85.828.065-150.957-38.654-187.019-121.223-33.8-77.386-25.991-154.151,25.206-221.905,76.895-101.764,217.628-104.472,301.486-6.894,33.584,39.081,56.694,85.759,81.542,131.019,59.122,107.667,156.074,158.484,260.581,197.846,35.856,13.5,26.474-16.617,26.508-34.567q.608-315.233.423-630.467c.026-95.529,0-55.789,0-162.555,101.613,53.422,197.044,103.2,292.078,153.841,23.038,12.28,12.991,36.653,13.056,55.685.832,251.419.888,367.567,1.138,618.99Z"
           transform="translate(-359.624 1700.126)"
           fill="#8e6e3d" />
        <g
           id="Group_12296"
           data-name="Group 12296"
           transform="translate(189.199)">
          <path
             id="Path_70945"
             data-name="Path 70945"
             d="M869.962,745.949c0,339.088,257.157,519.566,557.384,688.433,7.619,4.174,15.242,8.455,22.753,12.741q219.224,122.249,363.514,248.34c169.113,147.335,263.4,298.166,287.317,450.239-60-95.706-162.865-173.83-287.74-244.96-115.247-65.723-249.327-125.353-385.952-187.243-403.936-182.846-830.31-384.857-859.094-817.732C533.965,385.333,827,77.806,1378.775,51.651c245.831-11.723,465.636,136.4,588.6,212.156,39.37,23.563,83.711,9.356,103.394-42.5l19.791-52.081,44.234-4.734V643.93H2013.2q-10.477-22.83-22.011-45.881c-106.141-211.027-280.863-417.66-555.38-419.35C1125.848,177.009,869.962,410.358,869.962,745.949Z"
             transform="translate(-565.457 -50.995)"
             fill="#8e6e3d" />
        </g>
        <path
           id="Path_70946"
           data-name="Path 70946"
           d="M958.892,177.82"
           transform="translate(926.676 369.011)"
           fill="#8e6e3d" />
      </g>
    </g>
  </g>
  <path
     style="fill:#000000;fill-opacity:1;stroke:none;stroke-width:6.87779093;stroke-opacity:1"
     d="m 3778.9457,2024.6654 c -91.5694,-104.0282 -242.895,-193.0375 -620.5742,-365.02 -194.656,-88.6398 -309.8209,-146.2944 -404.5908,-202.5489 -244.3708,-145.0559 -383.2503,-304.0904 -435.8477,-499.10034 -13.9553,-51.74059 -15.7408,-73.87917 -15.5316,-192.57815 0.1972,-111.81381 2.6583,-144.47861 14.7998,-196.42558 77.5999,-332.00838 322.8196,-520.852937 727.5969,-560.3247491 138.1372,-13.4704374 252.1136,4.9214651 386.7691,62.4113431 71.491,30.522366 86.5138,38.512546 204.5561,108.796396 106.8591,63.62533 138.9046,59.95737 169.6848,-19.42234 14.2926,-36.85956 18.2484,-41.54742 35.0593,-41.54742 h 18.9489 v 233.84489 233.8449 h -57.8482 -57.8482 l -35.7455,-66.90003 C 3594.411,306.406 3451.7797,180.47588 3276.7267,138.59078 c -49.603,-11.86858 -73.6719,-13.71554 -139.0784,-10.6724 -96.3846,4.48445 -149.4966,17.49831 -230.406,56.45559 -148.0594,71.28948 -253.1502,202.09288 -293.5071,365.31953 -18.9546,76.66322 -20.5528,208.4639 -3.3865,279.2819 25.2703,104.24978 77.6543,195.7052 162.0017,282.8329 91.7144,94.7376 186.1172,162.1879 385.9312,275.7461 325.8705,185.1983 520.4073,356.8969 611.8494,540.0195 27.9688,56.0108 50.955,119.8206 47.21,131.0556 -1.2839,3.8517 -18.5618,-11.4321 -38.3953,-33.9641 z"
     id="path43"
     inkscape:connector-curvature="0" />
  <path
     style="fill:#f9f9f9;fill-opacity:1;stroke:#000000;stroke-width:6.87779093;stroke-opacity:1"
     d="m 3413.868,3117.4137 c 6.2837,-3.6675 43.4237,-14.3008 82.5335,-23.6294 123.6891,-29.503 254.0375,-87.8635 366.8537,-164.2504 84.0926,-56.9384 198.9857,-172.206 237.2343,-238.0074 105.1997,-180.9819 126.3766,-426.325 54.42,-630.4783 -37.422,-106.1726 -76.3746,-170.0851 -149.7185,-245.6541 -83.8931,-86.4383 -180.0028,-139.4251 -324.5772,-178.9446 -46.2917,-12.6539 -81.3926,-24.6712 -78.0018,-26.7051 3.3907,-2.0339 39.8175,-14.9182 80.9484,-28.6318 178.7222,-59.5883 296.3179,-152.5656 341.6416,-270.1191 23.3541,-60.5723 26.8323,-179.7841 7.4784,-256.3182 -41.3998,-163.71422 -176.8972,-285.41482 -355.4862,-319.28953 -68.7766,-13.04553 -296.4393,-21.29313 -321.7834,-11.65734 l -18.3066,6.96016 V 1054.115 c 0,177.8845 -1.2845,323.4264 -2.8544,323.4264 -1.5699,0 -49.787,-26.0965 -107.1489,-57.9923 -57.362,-31.8958 -123.9396,-68.1778 -147.9502,-80.6268 l -43.6557,-22.6343 -2.3932,-172.1321 c -2.5539,-183.69023 -2.6574,-184.29968 -41.0962,-241.84077 -21.377,-32.00043 -70.903,-67.61155 -110.5506,-79.49027 -19.8986,-5.96178 -25.9367,-11.11093 -24.3997,-20.80746 1.975,-12.45982 18.1726,-12.87048 490.6684,-12.44012 274.2333,0.24978 506.2822,3.31868 528.8666,6.99439 172.8848,28.13772 311.828,124.8989 377.7737,263.08462 34.6724,72.65441 44.5066,108.52821 50.1625,182.98631 4.4929,59.1474 -7.9915,138.6586 -31.6404,201.5128 -31.6331,84.0746 -107.0795,174.3056 -186.9839,223.6254 -22.2121,13.71 -40.3621,26.8086 -40.3334,29.1081 0.028,2.2994 25.5624,11.1993 56.7418,19.7775 61.5287,16.9281 161.1987,62.2093 219.493,99.7183 228.9319,147.3039 351.0491,427.8731 327.3074,752.0015 -17.7342,242.1114 -169.4225,467.0665 -387.1054,574.0805 -85.7656,42.1629 -177.3337,65.8465 -289.932,74.9898 -112.7843,9.1584 -573.9094,9.1231 -558.2056,-0.041 z"
     id="path45"
     inkscape:connector-curvature="0" />
  <path
     style="fill:#f9f9f9;fill-opacity:1;stroke:#000000;stroke-width:6.87779093;stroke-opacity:1"
     d="m 3615.6557,2934.7785 c 3.1813,-7.2452 15.1316,-39.4806 26.5565,-71.6342 18.1515,-51.0854 20.8201,-68.0065 21.1516,-134.1169 0.3074,-61.3876 -2.5456,-84.0869 -15.1299,-120.3614 -22.0763,-63.6358 -50.2625,-109.5829 -99.6259,-162.4028 -87.6861,-93.8261 -134.169,-121.2451 -441.9098,-260.6705 -230.4463,-104.4064 -424.349,-201.37 -508.9565,-254.5106 -309.1228,-194.1548 -483.016,-483.7921 -487.1855,-811.4578 -0.6257,-49.1763 1.5743,-111.0764 4.889,-137.55587 l 6.0266,-48.14454 13.3014,48.14454 c 40.3965,146.21647 158.2697,320.34247 306.0224,452.06607 155.5574,138.6816 329.2179,238.7263 617.7581,355.8867 463.2254,188.0905 696.7043,359.108 775.5511,568.072 13.3255,35.316 15.3619,53.7431 15.1499,137.0893 -0.2875,113.0592 -9.3962,154.08 -55.3762,249.3893 -22.3495,46.3269 -43.2666,76.9833 -76.7296,112.4558 -51.1221,54.1922 -111.437,100.3976 -101.4932,77.7509 z"
     id="path47"
     inkscape:connector-curvature="0" />
  <path
     style="fill:#f9f9f9;fill-opacity:1;stroke:#000000;stroke-width:6.87779093;stroke-opacity:0.98039216"
     d="m 2455.9373,3115.0322 c -42.8942,-15.3751 -73.1517,-38.0755 -95.2796,-71.4825 -59.5988,-89.9778 -51.9634,-193.9176 19.9785,-271.9653 40.088,-43.4904 86.882,-62.3085 144.6301,-58.1628 82.1133,5.8949 132.8299,47.3501 196.3165,160.4666 46.4353,82.7354 77.1081,119.8206 130.7793,158.1196 48.7185,34.7648 141.3849,78.5157 166.5906,78.653 l 15.4213,0.084 1.7731,-412.3847 1.7732,-412.3846 147.8725,78.0505 147.8725,78.0505 v 339.4925 339.4924 l -426.423,1.4447 c -334.9099,1.1347 -431.7629,-0.469 -451.305,-7.4739 z"
     id="path49"
     inkscape:connector-curvature="0" />
  <path
     style="fill:#f9f9f9;fill-opacity:1;stroke:#000000;stroke-width:6.87779093;stroke-opacity:1"
     d="M 206.07203,4198.2097 C 65.582076,4151.967 -16.353614,4017.4716 7.6005286,3872.4238 33.912482,3713.0989 156.72681,3619.16 327.06553,3628.0699 c 53.18848,2.7821 72.77562,7.1001 108.90998,24.0094 24.23194,11.3395 55.24999,30.4439 68.92899,42.4542 25.70019,22.5651 67.32771,81.9172 67.32771,95.9952 0,5.5026 -19.96681,7.9952 -64.04559,7.9952 -62.61228,0 -64.37374,-0.4439 -78.70881,-19.8331 -38.91551,-52.6361 -141.88436,-67.2956 -214.11362,-30.4831 -132.08727,67.3199 -125.11123,293.6826 10.8008,350.4703 70.1107,29.2941 162.23783,14.94 208.22092,-32.4424 25.09017,-25.8537 52.02129,-83.0103 43.24713,-91.7845 -2.19037,-2.1903 -48.34425,-3.9825 -102.56417,-3.9825 H 276.4872 v -41.2667 -41.2668 h 158.85311 158.8531 l -2.56158,63.6196 c -2.14745,53.3343 -5.7795,70.0305 -22.46601,103.2745 -25.80632,51.4131 -81.20757,103.2957 -139.58912,130.7237 -41.0179,19.2703 -54.57105,22.0621 -115.26165,23.7425 -52.85171,1.4634 -77.91645,-1.1037 -108.24302,-11.0857 z"
     id="path51"
     inkscape:connector-curvature="0" />
  <path
     style="fill:#f9f9f9;fill-opacity:1;stroke:#000000;stroke-width:6.87779093;stroke-opacity:1"
     d="m 819.83269,4208.833 c -51.9778,-12.0068 -89.04205,-32.6585 -119.88598,-66.7991 -43.47887,-48.1259 -55.09263,-81.9845 -55.3095,-161.2486 -0.16458,-60.1475 2.06675,-73.5246 17.78211,-106.6057 32.35062,-68.0988 84.11183,-108.0081 160.54556,-123.7851 105.90784,-21.8609 211.09202,24.3605 256.28462,112.62 13.8111,26.9725 18.7765,48.5459 21.1703,91.9791 l 3.1273,56.7418 H 929.83992 756.13276 l 3.91699,24.1376 c 8.71471,53.7024 52.2098,85.9401 115.8447,85.8617 38.91888,-0.048 66.68583,-13.0828 85.70169,-40.2318 9.17235,-13.0953 16.82557,-14.7452 68.39916,-14.7452 67.6488,0 69.2491,2.3533 35.7184,52.5256 -49.6077,74.2286 -151.52316,111.3461 -245.88101,89.5497 z m 165.06699,-283.9776 c 0,-67.559 -96.37811,-112.5926 -164.66434,-76.941 -35.00295,18.2747 -53.37073,40.66 -59.64418,72.6902 l -4.37804,22.3529 H 870.5564 984.89968 Z"
     id="path53"
     inkscape:connector-curvature="0" />
  <path
     style="fill:#f9f9f9;fill-opacity:1;stroke:#000000;stroke-width:6.87779093;stroke-opacity:1"
     d="m 1184.3556,3980.7853 v -230.406 h 55.0223 55.0224 v 27.5112 c 0,31.9361 5.2933,33.9664 27.3485,10.4898 35.0495,-37.3085 127.0616,-52.7343 188.7232,-31.6394 40.6873,13.9194 83.6781,57.3791 100.0526,101.144 12.6005,33.6777 14.0096,53.3297 14.0096,195.3752 v 157.9312 h -54.4409 -54.4409 l -2.3009,-149.5919 c -2.1743,-141.3685 -3.1575,-150.9696 -17.8843,-174.6515 -41.8231,-67.2552 -150.0795,-62.8204 -185.5919,7.6029 -14.5678,28.8888 -15.475,39.0705 -15.475,173.6642 v 142.9763 h -55.0224 -55.0223 z"
     id="path55"
     inkscape:connector-curvature="0" />
  <path
     style="fill:#f9f9f9;fill-opacity:1;stroke:#000000;stroke-width:6.87779093;stroke-opacity:1"
     d="m 1884.0436,4211.2175 c -109.9205,-19.4393 -183.8537,-111.7049 -183.8537,-229.4419 0,-102.4672 39.548,-171.4918 121.3228,-211.7494 42.1512,-20.751 51.7964,-22.7622 108.6211,-22.6502 52.2327,0.103 68.5577,2.9835 100.504,17.7336 83.2516,38.4386 123.5597,98.5517 128.9907,192.3691 l 3.1408,54.2567 h -176.3984 -176.3984 l 4.3907,18.9139 c 7.2086,31.0526 26.0957,59.1361 51.2656,76.2273 20.4252,13.8695 30.223,15.7365 70.9001,13.5104 44.2662,-2.4225 48.6535,-4.1694 70.5899,-28.1062 l 23.3902,-25.5231 h 58.3687 c 32.1028,0 58.3396,2.3213 58.3041,5.1583 -0.1898,15.1693 -43.4877,77.4858 -65.5068,94.2806 -50.6832,38.6579 -130.63,56.87 -197.6314,45.0209 z m 160.0359,-284.4374 c 0,-22.7339 -26.6232,-59.6192 -54.9901,-76.1863 -33.3211,-19.4606 -95.3237,-19.3279 -121.7622,0.2605 -25.8129,19.1249 -50.2148,56.0211 -50.2148,75.9258 v 16.1774 h 113.4835 113.4836 z"
     id="path57"
     inkscape:connector-curvature="0" />
  <path
     style="fill:#f9f9f9;fill-opacity:1;stroke:#000000;stroke-width:6.87779093;stroke-opacity:1"
     d="m 2236.6576,3980.7853 v -230.406 h 58.4613 58.4612 v 35.2649 35.2649 l 30.2969,-27.9267 c 25.8129,-23.7934 82.1431,-49.4809 108.5072,-49.4809 3.0962,0 5.6295,25.8777 5.6295,57.506 v 57.506 l -41.5126,3.7642 c -47.1421,4.2747 -70.1645,16.7251 -89.4681,48.384 -12.1161,19.871 -13.404,35.3376 -13.4272,161.2543 l -0.026,139.2753 h -58.4612 -58.4613 z"
     id="path59"
     inkscape:connector-curvature="0" />
  <path
     style="fill:#f9f9f9;fill-opacity:1;stroke:#000000;stroke-width:6.87779093;stroke-opacity:1"
     d="m 2705.3569,4210.6729 c -38.891,-7.6436 -82.8129,-33.7064 -111.1036,-65.9277 -80.0559,-91.1786 -74.7631,-258.7502 10.7972,-341.8453 39.9598,-38.8085 80.8642,-54.9215 140.5637,-55.3706 58.7054,-0.4416 97.3465,13.5935 139.6247,50.7143 l 25.4423,22.3386 v -35.1014 -35.1015 h 55.0223 55.0223 v 230.406 230.406 h -55.0223 -55.0223 v -34.3889 c 0,-18.914 -1.7856,-34.389 -3.968,-34.389 -2.1824,0 -12.9412,8.9733 -23.9085,19.9406 -40.9988,40.9988 -113.8124,60.8259 -177.4478,48.3189 z m 105.5963,-96.5895 c 72.8403,-20.1752 109.8982,-88.6379 92.3269,-170.5698 -16.8158,-78.4096 -98.2314,-122.9887 -169.923,-93.0415 -38.6881,16.161 -62.6779,43.1833 -74.5292,83.9505 -23.4002,80.4939 14.4483,158.4554 87.0376,179.2823 31.8698,9.1439 33.4087,9.1528 65.0877,0.3784 z"
     id="path61"
     inkscape:connector-curvature="0" />
  <path
     style="fill:#f9f9f9;fill-opacity:1;stroke:#000000;stroke-width:6.87779093;stroke-opacity:1"
     d="m 3130.7705,3905.1296 v -306.0617 h 55.0223 55.0223 v 306.0617 306.0617 h -55.0223 -55.0223 z"
     id="path63"
     inkscape:connector-curvature="0" />
  <path
     style="fill:#f9f9f9;fill-opacity:1;stroke:#000000;stroke-width:6.87779093;stroke-opacity:1"
     d="m 3536.5601,3922.3241 v -288.8672 h 178.8226 178.8226 v 44.7056 44.7057 H 3770.405 3646.6048 v 75.6557 75.6557 h 96.2891 96.2891 v 44.7056 44.7056 h -96.2891 -96.2891 v 123.8003 123.8002 h -55.0223 -55.0224 z"
     id="path65"
     inkscape:connector-curvature="0" />
  <path
     style="fill:#f9f9f9;fill-opacity:1;stroke:#000000;stroke-width:6.87779093;stroke-opacity:1"
     d="m 3969.861,3980.7853 v -230.406 h 58.4612 58.4612 v 230.406 230.406 h -58.4612 -58.4612 z"
     id="path67"
     inkscape:connector-curvature="0" />
  <path
     style="fill:#f9f9f9;fill-opacity:1;stroke:#000000;stroke-width:6.87779093;stroke-opacity:1"
     d="m 3980.1447,3671.8771 c -34.7641,-34.7642 -26.7352,-80.2766 18.0231,-102.1649 21.56,-10.5436 28.3749,-11.001 51.2318,-3.4389 37.0019,12.2419 55.2702,44.1441 44.3047,77.3698 -10.3735,31.4318 -30.4712,44.8361 -67.2251,44.8361 -22.2612,0 -33.9041,-4.1718 -46.3345,-16.6021 z"
     id="path69"
     inkscape:connector-curvature="0" />
  <path
     style="fill:#f9f9f9;fill-opacity:1;stroke:#000000;stroke-width:6.87779093;stroke-opacity:1"
     d="m 4189.9503,3980.7853 v -230.406 h 58.4612 58.4612 v 27.5543 27.5543 l 28.7918,-20.8566 c 98.8615,-71.6149 234.3951,-40.9409 281.4882,63.7065 15.3724,34.1596 16.4011,45.1885 18.6085,199.506 l 2.3366,163.3475 h -59.0068 -59.0067 l -0.011,-146.153 c -0.01,-125.4183 -1.7168,-149.5488 -12.0362,-170.0883 -36.1072,-71.8671 -144.9975,-74.9798 -187.4462,-5.3583 -12.5291,20.5494 -13.6692,34.8706 -13.6927,172.0077 l -0.026,149.5919 h -58.4612 -58.4612 z"
     id="path71"
     inkscape:connector-curvature="0" />
  <path
     style="fill:#f9f9f9;fill-opacity:1;stroke:#000000;stroke-width:6.87779093;stroke-opacity:1"
     d="m 4880.0936,4211.0528 c -136.8967,-27.7847 -208.5799,-185.1108 -152.5615,-334.8333 16.6049,-44.3806 63.5398,-94.1466 107.4204,-113.9001 50.4824,-22.7254 124.0572,-21.0605 175.0097,3.9602 21.6605,10.6366 45.6468,27.3028 53.3029,37.036 l 13.9202,17.6967 v -35.3165 -35.3165 h 58.4613 58.4612 v 230.406 230.406 h -58.4612 -58.4613 v -34.9735 -34.9734 l -30.543,26.885 c -42.7688,37.6466 -108.7561,54.653 -166.5487,42.9234 z m 134.0859,-108.1118 c 35.7775,-16.8585 58.4944,-57.0889 61.8317,-109.5007 3.7739,-59.2675 -11.7346,-99.8232 -48.3017,-126.3123 -105.1132,-76.1436 -239.5998,32.3435 -197.1748,159.0561 27.4287,81.9224 104.4041,114.0954 183.6448,76.7569 z"
     id="path73"
     inkscape:connector-curvature="0" />
  <path
     style="fill:#f9f9f9;fill-opacity:1;stroke:#000000;stroke-width:6.87779093;stroke-opacity:1"
     d="m 5297.2746,3980.7853 v -230.406 h 58.4613 58.4612 v 27.5112 c 0,31.9361 5.2934,33.9664 27.3486,10.4898 36.9263,-39.3063 130.5852,-53.3043 193.9175,-28.9823 43.1193,16.5594 84.3218,62.1338 98.0908,108.4989 8.3783,28.213 10.7771,70.4568 10.7771,189.7924 v 153.502 h -54.4313 -54.4313 l -2.3105,-146.153 c -2.6065,-164.877 -8.4263,-187.731 -54.2412,-213.001 -31.0792,-17.1423 -94.6046,-14.075 -121.8259,5.8822 -39.1282,28.6868 -42.8714,46.7657 -42.8831,207.1188 l -0.011,146.153 h -58.4612 -58.4613 z"
     id="path75"
     inkscape:connector-curvature="0" />
  <path
     style="fill:#f9f9f9;fill-opacity:1;stroke:none;stroke-width:6.87779093;stroke-opacity:1"
     d="m 5998.8093,4210.8023 c -52.1207,-10.4896 -103.6236,-41.1654 -132.3469,-78.8277 -36.2014,-47.4678 -48.7471,-94.1665 -45.2045,-168.2638 4.7514,-99.3787 43.2905,-158.7295 129.0931,-198.8054 32.3549,-15.1121 47.533,-17.7787 100.0418,-17.5763 51.4121,0.1982 68.3165,3.1955 99.7698,17.6904 54.8153,25.2609 87.7995,61.0775 109.985,119.4301 l 6.5551,17.2411 h -61.341 c -60.7892,0 -61.4501,-0.1846 -73.4638,-20.5222 -23.6973,-40.1162 -92.371,-54.1037 -140.0737,-28.5303 -49.0667,26.3047 -73.2154,122.5662 -48.8841,194.8618 25.8867,76.9172 124.963,98.2294 181.3061,39.0005 l 25.8336,-27.1567 58.1692,1.9875 58.1693,1.9875 -12.7589,28.4535 c -39.4936,88.0739 -150.6654,139.9977 -254.8501,119.03 z"
     id="path77"
     inkscape:connector-curvature="0" />
  <path
     style="fill:#f9f9f9;fill-opacity:1;stroke:#000000;stroke-width:6.87779093;stroke-opacity:1"
     d="m 5981.6149,4204.3157 c -67.5927,-21.1007 -130.7458,-82.3579 -147.649,-143.2163 -10.3569,-37.2895 -8.6076,-131.2064 3.1835,-170.9114 13.5274,-45.5517 53.8913,-90.4772 104.1872,-115.9614 36.6702,-18.5802 46.4393,-20.4084 109.0562,-20.4084 58.6326,0 73.7068,2.4264 102.1922,16.4492 51.6907,25.4461 88.5985,66.9473 104.077,117.0299 l 5.1169,16.5567 -57.5485,-4.4293 c -51.1036,-3.9331 -58.9765,-6.3866 -70.2986,-21.9075 -18.6636,-25.5848 -47.1269,-37.73 -88.3558,-37.7009 -75.2587,0.053 -111.8178,48.476 -112.0028,148.3491 -0.09,48.7036 2.1452,58.9217 18.1973,83.178 21.561,32.581 55.1774,50.4366 94.9555,50.4366 33.6627,0 50.0744,-7.4471 82.7614,-37.5544 23.5791,-21.7182 25.1517,-22.1095 76.766,-19.0992 l 52.6938,3.0733 -6.6757,19.1499 c -11.9425,34.2582 -52.8952,74.2883 -99.4454,97.2048 -36.4981,17.968 -54.7162,22.4692 -97.7198,24.144 -29.0719,1.1322 -62.1431,-0.84 -73.4914,-4.3827 z"
     id="path79"
     inkscape:connector-curvature="0" />
  <path
     style="fill:#f9f9f9;fill-opacity:1;stroke:none;stroke-width:6.87779093;stroke-opacity:1"
     d=""
     id="path81"
     inkscape:connector-curvature="0" />
  <path
     inkscape:export-xdpi="96"
     inkscape:export-ydpi="96"
     style="fill:#f9f9f9;fill-opacity:1;stroke:#000000;stroke-width:6.87779093;stroke-opacity:1"
     d="m 6494.0103,4208.833 c -75.3387,-17.4031 -130.7932,-61.5497 -160.1306,-127.4778 -19.2828,-43.3333 -23.709,-124.4975 -9.4618,-173.5061 21.576,-74.2188 76.7746,-132.0606 145.1132,-152.0619 42.2907,-12.3777 125.3898,-10.5327 166.6467,3.6999 45.6277,15.7405 94.3077,58.7233 117.2493,103.5274 13.8111,26.9725 18.7765,48.5459 21.1703,91.9791 l 3.1273,56.7418 h -172.8073 c -170.9355,0 -172.8072,0.1563 -172.8072,14.4356 0,25.2074 21.7637,61.4923 47.2851,78.8345 19.4367,13.2076 33.4871,16.7649 66.0755,16.7292 43.7701,-0.048 70.4975,-11.9555 90.3029,-40.2318 9.1724,-13.0953 16.8256,-14.7452 68.3992,-14.7452 67.6488,0 69.2491,2.3533 35.7184,52.5256 -49.6077,74.2286 -151.5232,111.3461 -245.881,89.5497 z m 162.776,-291.0839 c -8.1761,-50.3837 -74.8383,-92.5864 -129.8319,-82.1943 -47.967,9.0642 -83.4775,41.9718 -92.165,85.4094 l -4.3987,21.9933 h 115.2432 115.2432 z"
     id="path83"
     inkscape:connector-curvature="0" />
  <path
     style="fill:#ececec;fill-opacity:1;stroke:none;stroke-width:6.87779093;stroke-opacity:1"
     d="m 3780.0813,2021.9021 c -75.9211,-92.6516 -245.1363,-191.6694 -637.6186,-373.1082 -278.8658,-128.9156 -402.9845,-196.6078 -520.7887,-284.0289 -151.0661,-112.1043 -244.7938,-234.0435 -291.5139,-379.25767 -18.1597,-56.44363 -21.5274,-78.91626 -24.7363,-165.06699 -9.7981,-263.05144 48.7629,-436.29747 197.6118,-584.61224 119.3632,-118.9349 269.227,-186.32102 481.4445,-216.481099 216.0282,-30.701642 371.5206,3.604837 596.9503,131.705789 168.1373,95.54437 183.1976,96.95263 221.3046,20.69376 11.5169,-23.04749 24.7387,-44.31783 29.3817,-47.2674 25.1542,-15.97985 25.6363,-11.68753 25.6363,228.2714 v 233.8449 h -54.7889 -54.7889 l -27.1854,-49.86399 c -60.2007,-110.42157 -101.31,-167.26412 -172.7374,-238.84651 -91.9431,-92.14271 -159.4671,-132.26999 -271.8213,-161.53453 -51.3917,-13.38584 -164.4063,-13.72329 -232.5031,-0.69423 -214.0149,40.94783 -384.2101,206.89326 -434.2718,423.42809 -15.5132,67.10034 -14.065,217.85795 2.7234,283.4998 27.4394,107.28693 89.386,204.86092 191.7523,302.03482 76.2973,72.4273 152.3267,126.5375 300.503,213.8684 253.7409,149.5476 371.0245,231.305 478.4065,333.4928 97.3752,92.6653 162.0795,181.2707 202.9361,277.8988 36.9834,87.468 35.3022,102.3006 -5.8962,52.0232 z"
     id="path85"
     inkscape:connector-curvature="0" />
  <path
     style="fill:#f9f9f9;fill-opacity:1;stroke:#000000;stroke-width:6.87779093;stroke-opacity:1"
     d="m 3762.7783,1999.7199 c -83.6912,-85.4978 -231.9698,-171.3646 -576.1829,-333.6624 -358.236,-168.9096 -479.7367,-236.5674 -601.8768,-335.156 -140.7123,-113.5797 -233.9304,-255.1247 -265.3184,-402.86699 -13.5359,-63.71262 -8.9598,-302.57489 7.0061,-365.71101 61.3854,-242.74383 221.1607,-413.97254 461.1345,-494.190813 124.0099,-41.45395 288.263,-62.5416762 403.0288,-51.743098 122.9345,11.567186 223.2191,47.668409 399.2743,143.733851 57.0071,31.1062 105.3836,54.82238 107.5034,52.70263 2.1197,-2.11976 8.3492,0.64101 13.8433,6.13507 15.0816,15.08162 48.6205,12.26721 66.4651,-5.57741 8.5617,-8.56162 24.3879,-31.77416 35.1694,-51.58343 10.7816,-19.80927 23.2675,-36.01685 27.7464,-36.01685 9.3699,0 17.1815,156.84896 17.1815,344.98801 v 115.82399 l -53.3029,-0.11679 -53.3029,-0.11672 -26.5945,-49.74724 c -91.7902,-171.70159 -220.7288,-308.77287 -344.8062,-366.55439 -74.6697,-34.7729 -121.5895,-44.29243 -217.6431,-44.15744 -166.1677,0.23352 -278.0625,42.6464 -389.8062,147.75308 -73.3995,69.03988 -115.4615,134.11054 -151.0734,233.71301 -15.4752,43.28244 -17.4825,60.72728 -19.4047,168.63777 -2.5531,143.32849 4.3512,181.57114 49.1593,272.2912 53.086,107.47987 159.1551,220.64957 292.0284,311.57787 32.1537,22.0034 126.5513,81.1129 209.7726,131.3543 245.8007,148.392 355.4704,228.7865 461.3059,338.1651 67.8085,70.0785 103.3224,117.086 139.4747,184.6139 27.649,51.6446 58.3978,123.7434 54.4557,127.6856 -1.1533,1.1533 -21.5102,-17.7353 -45.2374,-41.9748 z"
     id="path87"
     inkscape:connector-curvature="0" />
</svg>
