<?xml version="1.0" encoding="UTF-8" standalone="no"?>
<svg
   xmlns:dc="http://purl.org/dc/elements/1.1/"
   xmlns:cc="http://creativecommons.org/ns#"
   xmlns:rdf="http://www.w3.org/1999/02/22-rdf-syntax-ns#"
   xmlns:svg="http://www.w3.org/2000/svg"
   xmlns="http://www.w3.org/2000/svg"
   xmlns:sodipodi="http://sodipodi.sourceforge.net/DTD/sodipodi-0.dtd"
   xmlns:inkscape="http://www.inkscape.org/namespaces/inkscape"
   width="6781.502"
   height="4218.677"
   viewBox="0 0 6781.502 4218.677"
   version="1.1"
   id="svg106"
   sodipodi:docname="sb finance logoBlack.svg"
   inkscape:version="0.92.5 (2060ec1f9f, 2020-04-08)">
  <metadata
     id="metadata112">
    <rdf:RDF>
      <cc:Work
         rdf:about="">
        <dc:format>image/svg+xml</dc:format>
        <dc:type
           rdf:resource="http://purl.org/dc/dcmitype/StillImage" />
        <dc:title></dc:title>
      </cc:Work>
    </rdf:RDF>
  </metadata>
  <defs
     id="defs110" />
  <sodipodi:namedview
     pagecolor="#ffffff"
     bordercolor="#666666"
     borderopacity="1"
     objecttolerance="10"
     gridtolerance="10"
     guidetolerance="10"
     inkscape:pageopacity="0"
     inkscape:pageshadow="2"
     inkscape:window-width="1528"
     inkscape:window-height="836"
     id="namedview108"
     showgrid="false"
     inkscape:zoom="0.15597308"
     inkscape:cx="3390.751"
     inkscape:cy="2109.3384"
     inkscape:window-x="72"
     inkscape:window-y="27"
     inkscape:window-maximized="1"
     inkscape:current-layer="svg106" />
  <g
     id="Group_12299"
     data-name="Group 12299"
     transform="translate(-33.286 -50.995)">
    <g
       id="Group_12295"
       data-name="Group 12295"
       transform="translate(33.286 3608.463)">
      <g
         id="Group_12294"
         data-name="Group 12294">
        <path
           id="Path_70928"
           data-name="Path 70928"
           d="M614.915,1073.566H477.407c-27.327-49.192-76.869-75.045-140.069-75.045-106.757,0-181.065,74.208-181.065,190.11,0,118.394,75.161,191.771,186.191,191.771,92.24,0,151.172-51.693,169.1-134.24H306.591v-89.217H629.432v101.725c-23.917,118.4-132.382,226.79-291.241,226.79-173.373,0-304.905-122.564-304.905-296.829s131.532-297.67,304.051-297.67C470.573,890.962,576.481,956.836,614.915,1073.566Z"
           transform="translate(-33.286 -826.757)"
           fill="#171717" />
        <path
           id="Path_70929"
           data-name="Path 70929"
           d="M418.5,1395.746c-137.508,0-237.436-93.386-237.436-238.47,0-145.916,97.366-238.466,237.436-238.466,136.65,0,233.159,90.886,233.159,228.467a266.6,266.6,0,0,1-3.415,45.023h-345.9c5.98,68.37,53.806,106.727,113.591,106.727,51.244,0,79.43-25.016,94.8-55.866H639.7C614.074,1328.208,535.5,1395.746,418.5,1395.746Zm-115.3-281.828H527.814c-1.707-60.864-51.244-99.221-112.738-99.221C357.856,1014.7,312.588,1050.548,303.193,1113.917Z"
           transform="translate(456.095 -734.536)"
           fill="#171717" />
        <path
           id="Path_70930"
           data-name="Path 70930"
           d="M637.829,1132.457c0-74.208-41.849-114.234-105.054-114.234-64.908,0-106.757,40.025-106.757,114.234V1387.6H306.45V925.673H426.017V983.2c30.747-39.189,81.991-64.2,142.631-64.2C678.824,919,757.4,989.042,757.4,1116.612V1387.6H637.829Z"
           transform="translate(871.347 -733.894)"
           fill="#171717" />
        <path
           id="Path_70931"
           data-name="Path 70931"
           d="M663.725,1395.746c-137.5,0-237.431-93.386-237.431-238.47,0-145.916,97.362-238.466,237.431-238.466,136.65,0,233.163,90.886,233.163,228.467a266.178,266.178,0,0,1-3.419,45.023h-345.9c5.98,68.37,53.805,106.727,113.591,106.727,51.249,0,79.43-25.016,94.805-55.866H884.928C859.308,1328.208,780.731,1395.746,663.725,1395.746Zm-115.3-281.828H773.048c-1.707-60.864-51.249-99.221-112.742-99.221C603.086,1014.7,557.818,1050.548,548.427,1113.917Z"
           transform="translate(1268.232 -734.536)"
           fill="#171717" />
        <path
           id="Path_70932"
           data-name="Path 70932"
           d="M671.25,1387.6H551.683V925.673H671.25v71.708C701.143,949.853,750.68,919,816.442,919v122.564h-31.6c-70.893,0-113.6,26.685-113.6,115.9Z"
           transform="translate(1683.481 -733.894)"
           fill="#171717" />
        <path
           id="Path_70933"
           data-name="Path 70933"
           d="M836.7,918.809c76.015,0,128.109,35.02,156.294,73.376V926.316H1113.42v461.928H992.995V1320.7c-28.186,40.03-81.991,75.045-157.148,75.045-119.572,0-215.231-95.887-215.231-240.135S716.275,918.809,836.7,918.809Zm30.746,102.557c-64.054,0-124.7,46.7-124.7,134.244s60.644,137.577,124.7,137.577c65.762,0,125.548-48.36,125.548-135.913S933.208,1021.366,867.447,1021.366Z"
           transform="translate(1911.766 -734.536)"
           fill="#171717" />
        <path
           id="Path_70934"
           data-name="Path 70934"
           d="M758.09,884.58H877.662V1501.6H758.09Z"
           transform="translate(2367.036 -847.892)"
           fill="#171717" />
        <path
           id="Path_70935"
           data-name="Path 70935"
           d="M852.38,892.7h368.1v94.219H971.947v149.253h190.46v92.554H971.947V1474.7H852.38Z"
           transform="translate(2679.295 -820.994)"
           fill="#171717" />
        <path
           id="Path_70936"
           data-name="Path 70936"
           d="M950.434,944.446c0-38.357,30.746-68.375,73.449-68.375,41.854,0,73.454,30.018,73.454,68.375s-31.6,68.37-73.454,68.37C981.18,1012.816,950.434,982.8,950.434,944.446Zm12.814,123.4H1082.82v461.928H963.248Z"
           transform="translate(3004.018 -876.071)"
           fill="#171717" />
        <path
           id="Path_70937"
           data-name="Path 70937"
           d="M1335.893,1132.457c0-74.208-41.85-114.234-105.054-114.234-64.913,0-106.762,40.025-106.762,114.234V1387.6H1004.514V925.673h119.563V983.2c30.746-39.189,81.991-64.2,142.634-64.2,110.177,0,188.744,70.039,188.744,197.609V1387.6H1335.893Z"
           transform="translate(3183.114 -733.894)"
           fill="#171717" />
        <path
           id="Path_70938"
           data-name="Path 70938"
           d="M1340.437,918.809c76.015,0,128.117,35.02,156.3,73.376V926.316h120.421v461.928H1496.736V1320.7c-28.181,40.03-81.991,75.045-157.152,75.045-119.572,0-215.226-95.887-215.226-240.135S1220.012,918.809,1340.437,918.809Zm30.747,102.557c-64.05,0-124.694,46.7-124.694,134.244s60.645,137.577,124.694,137.577c65.766,0,125.552-48.36,125.552-135.913S1436.949,1021.366,1371.184,1021.366Z"
           transform="translate(3579.996 -734.536)"
           fill="#171717" />
        <path
           id="Path_70939"
           data-name="Path 70939"
           d="M1593.209,1132.457c0-74.208-41.84-114.234-105.046-114.234-64.913,0-106.762,40.025-106.762,114.234V1387.6H1261.83V925.673H1381.4V983.2c30.747-39.189,81.991-64.2,142.634-64.2,110.177,0,188.744,70.039,188.744,197.609V1387.6H1593.209Z"
           transform="translate(4035.263 -733.894)"
           fill="#171717" />
        <path
           id="Path_70940"
           data-name="Path 70940"
           d="M1615.691,918.809c117.865,0,197.286,60.036,222.911,163.426H1709.639c-13.664-39.189-45.264-64.2-94.8-64.2-66.62,0-111.03,49.2-111.03,139.241s44.411,138.414,111.03,138.414c49.536,0,80.284-21.679,94.8-63.369H1838.6c-25.625,98.388-105.046,163.425-222.911,163.425-136.654,0-234.016-93.386-234.016-238.47S1479.037,918.809,1615.691,918.809Z"
           transform="translate(4432.152 -734.536)"
           fill="#171717" />
        <path
           id="Path_70941"
           data-name="Path 70941"
           d="M1734.389,1395.746c-137.5,0-237.427-93.386-237.427-238.47,0-145.916,97.362-238.466,237.427-238.466,136.655,0,233.167,90.886,233.167,228.467a266.178,266.178,0,0,1-3.419,45.023h-345.9c5.975,68.37,53.8,106.727,113.586,106.727,51.249,0,79.43-25.016,94.806-55.866H1955.6C1929.976,1328.208,1851.4,1395.746,1734.389,1395.746Zm-115.295-281.828h224.618c-1.707-60.864-51.24-99.221-112.737-99.221C1673.754,1014.7,1628.49,1050.548,1619.094,1113.917Z"
           transform="translate(4813.946 -734.536)"
           fill="#171717" />
      </g>
    </g>
    <g
       id="Group_12298"
       data-name="Group 12298"
       transform="translate(2138.639 50.995)">
      <g
         id="Group_12297"
         data-name="Group 12297">
        <path
           id="Path_70942"
           data-name="Path 70942"
           d="M2019.14,2296.356c280.652-156.3,255.312-490.657,255.031-494.813-24.581-367.161-590.666-590.252-850.4-692.771-829.486-327.4-883.813-843.029-883.628-843.822-.112-.224-144.872,549.468,375.849,944.556,191.409,154.418,653.768,336.51,816.124,418.112C1732.115,1627.618,2255.062,1836.4,2019.14,2296.356Z"
           transform="translate(-521.576 657.554)"
           fill="#8e6e3d" />
        <path
           id="Path_70943"
           data-name="Path 70943"
           d="M2275.841,2456.872c-140.958,135.5-314.934,188.6-501.294,194.12-176.206,5.187-352.51,4.17-528.819,5.865l1.8-4.51-3.708-2.932c48.472-28.182,104.136-28.858,155.781-45.656,178.107-57.94,336.419-148.236,470.392-289.6C2148.957,2019.6,2098.269,1372.535,1623,1196.342c-59.156-21.869-119.9-36.749-185.2-51.857,15.871-23.9,37.356-21.416,54.185-26.6,67.939-20.744,133.977-46.217,195.88-83.082,123.818-73.838,204.037-178.448,202.239-336.833-1.8-163.68-71.647-287.007-203.718-369.861-76.407-47.8-160.748-69.444-248.055-74.851-1.38-.116-2.755-.116-4.126-.228-12.172-.677-24.339-1.237-36.516-1.466-60-1.8-120.106.228-180.219-1.125-24.443-.565-34.179,7.326-34.179,35.058q.634,314.005.211,628.238C1070.376,845.19,936.08,775.414,877.135,745.314c.108-12.176,0-24.46,0-36.636-.1-84.772-.634-169.656-2.113-254.428-1.695-100.329-57.574-165.487-144.459-201.787-14.388-5.972-42.22-2.251-35.343-30.324,5.187-20.739,27.621-10.257,42.017-10.257q327.949-.841,656.014-.561h211.441c118.416-.116,231.02,23.783,333.987,89.506,284.037,181.155,287.214,602.761,5.614,789.211-16.195,10.71-33.234,20.179-56.194,34.045,35.028,9.581,64.658,16.01,93.232,25.926,266.574,91.537,441.607,280.471,500.134,572.212C2537.552,2002.127,2482.625,2257.909,2275.841,2456.872Z"
           transform="translate(49.924 473.04)"
           fill="#8e6e3d" />
        <path
           id="Path_70944"
           data-name="Path 70944"
           d="M1586.5,1428.684q-404.265-.142-808.527-.172c-85.828.065-150.957-38.654-187.019-121.223-33.8-77.386-25.991-154.151,25.206-221.905,76.895-101.764,217.628-104.472,301.486-6.894,33.584,39.081,56.694,85.759,81.542,131.019,59.122,107.667,156.074,158.484,260.581,197.846,35.856,13.5,26.474-16.617,26.508-34.567q.608-315.233.423-630.467c.026-95.529,0-55.789,0-162.555,101.613,53.422,197.044,103.2,292.078,153.841,23.038,12.28,12.991,36.653,13.056,55.685.832,251.419.888,367.567,1.138,618.99Z"
           transform="translate(-359.624 1700.126)"
           fill="#8e6e3d" />
        <g
           id="Group_12296"
           data-name="Group 12296"
           transform="translate(189.199)">
          <path
             id="Path_70945"
             data-name="Path 70945"
             d="M869.962,745.949c0,339.088,257.157,519.566,557.384,688.433,7.619,4.174,15.242,8.455,22.753,12.741q219.224,122.249,363.514,248.34c169.113,147.335,263.4,298.166,287.317,450.239-60-95.706-162.865-173.83-287.74-244.96-115.247-65.723-249.327-125.353-385.952-187.243-403.936-182.846-830.31-384.857-859.094-817.732C533.965,385.333,827,77.806,1378.775,51.651c245.831-11.723,465.636,136.4,588.6,212.156,39.37,23.563,83.711,9.356,103.394-42.5l19.791-52.081,44.234-4.734V643.93H2013.2q-10.477-22.83-22.011-45.881c-106.141-211.027-280.863-417.66-555.38-419.35C1125.848,177.009,869.962,410.358,869.962,745.949Z"
             transform="translate(-565.457 -50.995)"
             fill="#8e6e3d" />
        </g>
        <path
           id="Path_70946"
           data-name="Path 70946"
           d="M958.892,177.82"
           transform="translate(926.676 369.011)"
           fill="#8e6e3d" />
      </g>
    </g>
  </g>
  <path
     style="fill:#000000;fill-opacity:1;stroke:none;stroke-width:6.41136265;stroke-opacity:1"
     d="m 3611.3019,2943.5748 c 0,-2.1783 4.0251,-11.7513 8.9446,-21.2734 33.4783,-64.799 52.4485,-173.6861 42.4912,-243.8947 -13.377,-94.3193 -46.2055,-159.1639 -121.1159,-239.2341 -79.0646,-84.5105 -143.4386,-122.5219 -407.9665,-240.8954 -456.7439,-204.3882 -620.5895,-301.6852 -766.7649,-455.331 -129.5088,-136.1274 -214.0096,-304.2302 -245.5109,-488.4106 -14.4029,-84.2097 -13.0644,-301.80708 1.8565,-301.80708 2.1975,0 9.5724,19.47451 16.3885,43.2767 38.3504,133.92018 158.2438,310.48488 291.7578,429.66608 162.074,144.6753 334.6531,245.2659 618.8423,360.7027 324.0277,131.619 498.7418,230.5123 633.4919,358.5751 88.8826,84.4714 138.0439,162.2832 162.2128,256.7474 13.6135,53.2086 9.0613,160.6929 -9.911,234.0148 -25.7177,99.3906 -88.2177,204.9273 -152.844,258.0904 -38.8265,31.9396 -71.8724,54.8245 -71.8724,49.7731 z"
     id="path114"
     inkscape:connector-curvature="0" />
  <path
     style="fill:#000000;fill-opacity:1;stroke:none;stroke-width:6.41136265;stroke-opacity:1"
     d="m 3797.1048,2045.5344 c -76.8975,-103.1904 -251.8053,-209.4604 -621.7756,-377.7769 -381.595,-173.6051 -545.116,-271.3006 -676.3988,-404.114 -167.302,-169.2526 -227.7101,-365.29058 -192.6125,-625.07176 43.7181,-323.58687 252.6985,-538.829206 590.3066,-607.994569 287.8649,-58.974504 466.1754,-21.6691266 755.2881,158.018179 70.3455,43.72068 95.9926,47.20141 125.7307,17.06369 10.3594,-10.49861 24.4161,-33.51395 31.2371,-51.1452 10.8247,-27.98021 14.9492,-32.3123 32.4333,-34.06586 l 20.0313,-2.00906 v 234.42096 234.42096 h -59.502 -59.5021 l -24.4312,-49.68806 c -77.4674,-157.55232 -204.2124,-296.81016 -325.9279,-358.10516 -79.5354,-40.05336 -130.3775,-50.69455 -239.0924,-50.04177 -84.8422,0.50945 -102.8138,2.59318 -152.5686,17.68973 -183.6307,55.7171 -312.8581,179.54257 -373.5452,357.93037 -23.1646,68.09155 -30.7147,131.06529 -26.6005,221.86841 4.1287,91.12271 16.4375,142.13459 52.7429,218.58336 73.8182,155.44018 206.6254,271.03658 512.7941,446.33978 59.9463,34.3235 137.8443,81.2304 173.1068,104.2377 200.4766,130.8022 354.6294,282.8272 427.4658,421.5654 24.5558,46.7737 58.8034,140.8055 55.2098,151.5865 -1.1421,3.4263 -12.1175,-7.2444 -24.3897,-23.7127 z"
     id="path116"
     inkscape:connector-curvature="0" />
  <path
     style="fill:#000000;fill-opacity:1;stroke:none;stroke-width:6.41136265;stroke-opacity:1"
     d="m 3420.824,3115.9657 c 9.8403,-5.3358 43.4234,-15.2739 74.6291,-22.0847 204.5831,-44.6508 438.1998,-185.97 559.5867,-338.5044 161.2313,-202.6029 188.2996,-531.5059 64.196,-780.0357 -83.5369,-167.2909 -216.8179,-275.4404 -406.1918,-329.6 -36.5638,-10.457 -77.5491,-21.0047 -91.0783,-23.4395 -34.3568,-6.1829 -21.6486,-15.9089 48.9557,-37.4671 202.7741,-61.9147 332.6507,-175.0691 366.7004,-319.486 21.0387,-89.2326 7.1553,-204.0513 -35.4042,-292.79958 -20.8844,-43.54988 -35.9811,-63.88396 -78.5542,-105.80666 -82.2938,-81.03652 -165.3943,-121.57707 -282.6359,-137.88388 -70.2108,-9.76543 -287.7519,-9.21382 -297.7206,0.75491 -5.7797,5.77974 -7.6936,87.81464 -7.6936,329.77001 v 322.0763 l -81.7449,-46.6767 c -44.9597,-25.6722 -112.5479,-63.0352 -150.1959,-83.0288 l -68.4511,-36.352 -2.4485,-168.202 c -2.8023,-192.50883 -5.8801,-207.41469 -53.8422,-260.76011 -26.6506,-29.64186 -94.1881,-70.9317 -116.0226,-70.9317 -5.5099,0 -8.239,-5.14388 -6.9901,-13.17528 2.0472,-13.16528 2.4209,-13.17489 492.8384,-12.67299 302.0326,0.3091 506.6942,3.03427 532.1431,7.08574 111.7535,17.79114 209.8336,67.50518 288.8489,146.40938 45.8205,45.75602 60.2221,65.38477 85.0979,115.98494 40.1625,81.69502 50.9986,135.73242 46.9268,234.01472 -3.5447,85.5585 -15.2438,129.6217 -54.1689,204.0201 -29.6459,56.663 -96.3338,127.5111 -157.6738,167.5103 -26.7609,17.4504 -47.8514,32.5328 -46.8679,33.5163 0.9835,0.9835 27.4719,9.231 58.8631,18.3278 210.2877,60.939 373.1197,192.1718 461.1195,371.6345 98.0411,199.9402 118.6079,454.0784 52.4619,648.2536 -57.9745,170.187 -190.5242,325.697 -343.6077,403.1275 -142.1058,71.878 -253.162,86.1502 -670.2145,86.1314 -181.0486,-0.01 -197.1586,-0.8731 -180.8608,-9.7104 z"
     id="path118"
     inkscape:connector-curvature="0" />
  <path
     style="fill:#000000;fill-opacity:1;stroke:none;stroke-width:6.41136265;stroke-opacity:1"
     d="m 2458.3677,3116.6894 c -81.5258,-25.5114 -137.0951,-107.7972 -137.4676,-203.5593 -0.4438,-114.081 104.1805,-213.7564 211.1705,-201.1819 80.1158,9.4161 132.2384,56.2744 200.4642,180.2176 32.6186,59.2569 64.115,97.7394 106.1978,129.7531 44.1097,33.5556 164.3242,93.4529 181.0846,90.2259 10.5743,-2.0359 11.3563,-27.1193 12.9063,-414.01 0.9074,-226.5135 2.7371,-411.8428 4.0658,-411.8428 4.7145,0 281.8513,147.7681 290.3228,154.7988 7.0501,5.851 8.3125,68.3897 6.9545,344.5164 l -1.659,337.3676 -423.15,1.1976 c -340.5214,0.9637 -428.5667,-0.4976 -450.8899,-7.483 z"
     id="path120"
     inkscape:connector-curvature="0" />
</svg>
